G04*
G04 #@! TF.GenerationSoftware,Altium Limited,Altium Designer,20.2.5 (213)*
G04*
G04 Layer_Color=8388736*
%FSLAX25Y25*%
%MOIN*%
G70*
G04*
G04 #@! TF.SameCoordinates,30BD3B00-C382-4E22-9566-45DB6D5F9054*
G04*
G04*
G04 #@! TF.FilePolarity,Negative*
G04*
G01*
G75*
%ADD13R,0.04528X0.04134*%
%ADD14R,0.05512X0.01772*%
%ADD15R,0.12402X0.08465*%
%ADD16R,0.05118X0.02953*%
%ADD17C,0.06496*%
%ADD18R,0.06496X0.06496*%
%ADD19C,0.14370*%
D13*
X25941Y86366D02*
D03*
Y93059D02*
D03*
X4095Y30307D02*
D03*
Y37000D02*
D03*
X10594Y27807D02*
D03*
Y34500D02*
D03*
D14*
X-5906Y23622D02*
D03*
Y25591D02*
D03*
Y27559D02*
D03*
Y29528D02*
D03*
Y31496D02*
D03*
Y21654D02*
D03*
D15*
X-15059Y39213D02*
D03*
Y13937D02*
D03*
D16*
X33012Y93453D02*
D03*
Y85972D02*
D03*
X41870Y89713D02*
D03*
D17*
X68441Y88713D02*
D03*
X78441D02*
D03*
X68441Y78713D02*
D03*
X78441D02*
D03*
X68441Y68713D02*
D03*
X78441D02*
D03*
X68441Y58713D02*
D03*
X78441D02*
D03*
X68441Y48713D02*
D03*
X78441D02*
D03*
X68441Y38713D02*
D03*
D18*
X78441D02*
D03*
D19*
X78740Y0D02*
D03*
Y118110D02*
D03*
X0D02*
D03*
Y0D02*
D03*
M02*
