G04*
G04 #@! TF.GenerationSoftware,Altium Limited,Altium Designer,20.2.5 (213)*
G04*
G04 Layer_Physical_Order=2*
G04 Layer_Color=16711680*
%FSLAX25Y25*%
%MOIN*%
G70*
G04*
G04 #@! TF.SameCoordinates,30BD3B00-C382-4E22-9566-45DB6D5F9054*
G04*
G04*
G04 #@! TF.FilePolarity,Positive*
G04*
G01*
G75*
%ADD21R,0.04921X0.01181*%
%ADD22R,0.11811X0.07874*%
%ADD24C,0.01200*%
%ADD25C,0.00800*%
%ADD26C,0.05906*%
%ADD27R,0.05906X0.05906*%
%ADD28C,0.13780*%
%ADD29C,0.03000*%
G36*
X89285Y126331D02*
X89723Y126149D01*
X90118Y125886D01*
X90453Y125550D01*
X90716Y125156D01*
X90898Y124718D01*
X90990Y124253D01*
Y124016D01*
Y-5906D01*
Y-6143D01*
X90898Y-6608D01*
X90716Y-7046D01*
X90453Y-7440D01*
X90118Y-7776D01*
X89723Y-8039D01*
X89285Y-8221D01*
X88820Y-8313D01*
X-21891D01*
X-22356Y-8221D01*
X-22794Y-8039D01*
X-23188Y-7776D01*
X-23524Y-7440D01*
X-23787Y-7046D01*
X-23969Y-6608D01*
X-24061Y-6143D01*
Y-5906D01*
Y124016D01*
Y124253D01*
X-23969Y124718D01*
X-23787Y125156D01*
X-23524Y125550D01*
X-23188Y125886D01*
X-22794Y126149D01*
X-22356Y126331D01*
X-21891Y126423D01*
X88820D01*
X89285Y126331D01*
D02*
G37*
%LPC*%
G36*
X54439Y114616D02*
X41428D01*
Y105542D01*
X54439D01*
Y114616D01*
D02*
G37*
G36*
X57087Y103586D02*
X56921Y103553D01*
X54026D01*
Y101172D01*
Y97235D01*
X56921D01*
X57087Y97202D01*
X57252Y97235D01*
X60147D01*
X60371Y96827D01*
Y96086D01*
X60147Y95679D01*
X57252D01*
X57087Y95712D01*
X56921Y95679D01*
X54026D01*
Y91784D01*
X49865D01*
X49608Y92168D01*
X48914Y92632D01*
X48094Y92795D01*
X47275Y92632D01*
X46580Y92168D01*
X46116Y91473D01*
X45953Y90654D01*
X46116Y89834D01*
X46580Y89139D01*
X47275Y88675D01*
X48094Y88512D01*
X48914Y88675D01*
X49608Y89139D01*
X49740Y89337D01*
X51394D01*
X51586Y88875D01*
X49729Y87019D01*
X49464Y86622D01*
X49371Y86154D01*
Y38625D01*
X21342D01*
X20874Y38532D01*
X20477Y38267D01*
X18937Y36726D01*
X18595Y36795D01*
X17775Y36632D01*
X17081Y36167D01*
X16616Y35473D01*
X16453Y34653D01*
X16616Y33834D01*
X17081Y33140D01*
X17775Y32675D01*
X18595Y32512D01*
X19414Y32675D01*
X20109Y33140D01*
X20573Y33834D01*
X20736Y34653D01*
X20667Y34996D01*
X21849Y36178D01*
X54026D01*
Y32274D01*
Y28337D01*
Y24400D01*
X60147D01*
Y28337D01*
Y32274D01*
Y36177D01*
X60840D01*
X64229Y32788D01*
X64626Y32523D01*
X65095Y32430D01*
X73382D01*
X73850Y32523D01*
X74247Y32788D01*
X76618Y35160D01*
X81994D01*
Y42265D01*
X74888D01*
Y36890D01*
X72875Y34877D01*
X69771D01*
X69672Y35377D01*
X70233Y35609D01*
X70975Y36179D01*
X71544Y36921D01*
X71902Y37785D01*
X72024Y38713D01*
X71902Y39640D01*
X71544Y40504D01*
X70975Y41246D01*
X70233Y41816D01*
X69368Y42174D01*
X68441Y42296D01*
X67514Y42174D01*
X66649Y41816D01*
X66372Y41603D01*
X65915Y42059D01*
X65584Y42281D01*
X65194Y42358D01*
X64236D01*
X64028Y42858D01*
X66741Y45571D01*
X67514Y45251D01*
X68441Y45129D01*
X69368Y45251D01*
X70233Y45609D01*
X70975Y46179D01*
X71544Y46921D01*
X71902Y47785D01*
X72024Y48713D01*
X71902Y49640D01*
X71544Y50504D01*
X70975Y51247D01*
X70233Y51816D01*
X69368Y52174D01*
X68441Y52296D01*
X67514Y52174D01*
X66649Y51816D01*
X65907Y51247D01*
X65338Y50504D01*
X65114Y49965D01*
X64614Y50064D01*
Y53444D01*
X66741Y55571D01*
X67514Y55251D01*
X68441Y55129D01*
X69368Y55251D01*
X70233Y55609D01*
X70975Y56179D01*
X71544Y56921D01*
X71902Y57785D01*
X72024Y58713D01*
X71902Y59640D01*
X71544Y60504D01*
X70975Y61247D01*
X70233Y61816D01*
X69368Y62174D01*
X68567Y62279D01*
X68323Y62743D01*
X69162Y63582D01*
X69383Y63912D01*
X69460Y64303D01*
Y65289D01*
X70233Y65609D01*
X70975Y66179D01*
X71544Y66921D01*
X71902Y67785D01*
X72024Y68713D01*
X71902Y69640D01*
X71544Y70504D01*
X70975Y71246D01*
X70233Y71816D01*
X69368Y72174D01*
X68567Y72279D01*
X68323Y72743D01*
X69162Y73582D01*
X69383Y73913D01*
X69460Y74303D01*
Y75289D01*
X70233Y75609D01*
X70975Y76179D01*
X71544Y76921D01*
X71902Y77785D01*
X72024Y78713D01*
X71902Y79640D01*
X71544Y80504D01*
X70975Y81247D01*
X70233Y81816D01*
X69368Y82174D01*
X68441Y82296D01*
X67514Y82174D01*
X66649Y81816D01*
X65907Y81247D01*
X65338Y80504D01*
X64980Y79640D01*
X64858Y78713D01*
X64980Y77785D01*
X65338Y76921D01*
X65907Y76179D01*
X66649Y75609D01*
X67421Y75289D01*
Y74725D01*
X60074Y67377D01*
X59852Y67046D01*
X59775Y66656D01*
Y54783D01*
X59352Y54360D01*
X57277D01*
X57179Y54340D01*
X54026D01*
Y49991D01*
Y46053D01*
Y42116D01*
Y38625D01*
X51818D01*
Y85647D01*
X53521Y87350D01*
X57077D01*
X57172Y87369D01*
X60533D01*
X61001Y87462D01*
X61398Y87727D01*
X62460Y88788D01*
X62725Y89185D01*
X62818Y89653D01*
Y99154D01*
X62725Y99622D01*
X62460Y100019D01*
X61229Y101249D01*
X60832Y101515D01*
X60364Y101608D01*
X60147D01*
Y103553D01*
X57252D01*
X57087Y103586D01*
D02*
G37*
G36*
X68441Y92296D02*
X67514Y92174D01*
X66649Y91816D01*
X65907Y91246D01*
X65338Y90504D01*
X64980Y89640D01*
X64858Y88713D01*
X64980Y87785D01*
X65338Y86921D01*
X65907Y86179D01*
X66649Y85609D01*
X67514Y85251D01*
X68441Y85129D01*
X69368Y85251D01*
X70233Y85609D01*
X70975Y86179D01*
X71544Y86921D01*
X71902Y87785D01*
X72024Y88713D01*
X71902Y89640D01*
X71544Y90504D01*
X70975Y91246D01*
X70233Y91816D01*
X69368Y92174D01*
X68441Y92296D01*
D02*
G37*
G36*
X78441Y82296D02*
X77513Y82174D01*
X76649Y81816D01*
X75907Y81247D01*
X75338Y80504D01*
X74980Y79640D01*
X74857Y78713D01*
X74980Y77785D01*
X75338Y76921D01*
X75907Y76179D01*
X76649Y75609D01*
X77513Y75251D01*
X78441Y75129D01*
X79368Y75251D01*
X80233Y75609D01*
X80975Y76179D01*
X81544Y76921D01*
X81902Y77785D01*
X82024Y78713D01*
X81902Y79640D01*
X81544Y80504D01*
X80975Y81247D01*
X80233Y81816D01*
X79368Y82174D01*
X78441Y82296D01*
D02*
G37*
G36*
Y72296D02*
X77513Y72174D01*
X76649Y71816D01*
X75907Y71246D01*
X75338Y70504D01*
X74980Y69640D01*
X74857Y68713D01*
X74980Y67785D01*
X75338Y66921D01*
X75907Y66179D01*
X76649Y65609D01*
X77513Y65251D01*
X78441Y65129D01*
X79368Y65251D01*
X80233Y65609D01*
X80975Y66179D01*
X81544Y66921D01*
X81902Y67785D01*
X82024Y68713D01*
X81902Y69640D01*
X81544Y70504D01*
X80975Y71246D01*
X80233Y71816D01*
X79368Y72174D01*
X78441Y72296D01*
D02*
G37*
G36*
Y62296D02*
X77513Y62174D01*
X76649Y61816D01*
X75907Y61247D01*
X75338Y60504D01*
X74980Y59640D01*
X74857Y58713D01*
X74980Y57785D01*
X75338Y56921D01*
X75907Y56179D01*
X76649Y55609D01*
X77513Y55251D01*
X78441Y55129D01*
X79368Y55251D01*
X80233Y55609D01*
X80975Y56179D01*
X81544Y56921D01*
X81902Y57785D01*
X82024Y58713D01*
X81902Y59640D01*
X81544Y60504D01*
X80975Y61247D01*
X80233Y61816D01*
X79368Y62174D01*
X78441Y62296D01*
D02*
G37*
G36*
Y52296D02*
X77513Y52174D01*
X76649Y51816D01*
X75907Y51247D01*
X75338Y50504D01*
X74980Y49640D01*
X74857Y48713D01*
X74980Y47785D01*
X75338Y46921D01*
X75907Y46179D01*
X76649Y45609D01*
X77513Y45251D01*
X78441Y45129D01*
X79368Y45251D01*
X80233Y45609D01*
X80975Y46179D01*
X81544Y46921D01*
X81902Y47785D01*
X82024Y48713D01*
X81902Y49640D01*
X81544Y50504D01*
X80975Y51247D01*
X80233Y51816D01*
X79368Y52174D01*
X78441Y52296D01*
D02*
G37*
G36*
X54439Y22411D02*
X41428D01*
Y13337D01*
X54439D01*
Y22411D01*
D02*
G37*
%LPD*%
G36*
X64874Y68587D02*
X64980Y67785D01*
X65338Y66921D01*
X65907Y66179D01*
X66649Y65609D01*
X67421Y65289D01*
Y64725D01*
X62276Y59580D01*
X61814Y59771D01*
Y66234D01*
X64411Y68831D01*
X64874Y68587D01*
D02*
G37*
D21*
X57087Y102362D02*
D03*
Y100394D02*
D03*
Y98425D02*
D03*
Y96457D02*
D03*
Y94488D02*
D03*
Y92520D02*
D03*
Y90551D02*
D03*
Y88583D02*
D03*
Y86614D02*
D03*
Y84646D02*
D03*
Y82677D02*
D03*
Y80709D02*
D03*
Y78740D02*
D03*
Y76772D02*
D03*
Y74803D02*
D03*
Y72835D02*
D03*
Y70866D02*
D03*
Y68898D02*
D03*
Y66929D02*
D03*
Y64961D02*
D03*
Y62992D02*
D03*
Y61024D02*
D03*
Y59055D02*
D03*
Y57087D02*
D03*
Y55118D02*
D03*
Y53150D02*
D03*
Y51181D02*
D03*
Y49213D02*
D03*
Y47244D02*
D03*
Y45276D02*
D03*
Y43307D02*
D03*
Y41339D02*
D03*
Y39370D02*
D03*
Y37402D02*
D03*
Y35433D02*
D03*
Y33465D02*
D03*
Y31496D02*
D03*
Y29528D02*
D03*
Y27559D02*
D03*
Y25591D02*
D03*
D22*
X47933Y17874D02*
D03*
Y110079D02*
D03*
D24*
X57077Y90561D02*
X57087Y90551D01*
X48187Y90561D02*
X57077D01*
X48094Y90654D02*
X48187Y90561D01*
X57087Y90551D02*
Y92520D01*
Y94488D01*
X50595Y37402D02*
X57087D01*
X21342D02*
X50595D01*
Y86154D01*
X57077Y88573D02*
X57087Y88583D01*
X53014Y88573D02*
X57077D01*
X50595Y86154D02*
X53014Y88573D01*
X57087Y100394D02*
X57096Y100384D01*
X60364D01*
X61594Y99154D01*
Y89653D02*
Y99154D01*
X57087Y88583D02*
X57096Y88592D01*
X60533D01*
X61594Y89653D01*
X57087Y98425D02*
Y100394D01*
Y102362D01*
Y37400D02*
X57087Y37401D01*
X18595Y34653D02*
X21342Y37402D01*
X57087Y35433D02*
Y37400D01*
Y37402D02*
X57087Y37401D01*
X61347D01*
X65095Y33654D01*
X73382D01*
X78441Y38713D01*
D25*
X60795Y54361D02*
Y66656D01*
X68441Y74303D01*
Y78713D01*
X57087Y53150D02*
X57277Y53340D01*
X59774D01*
X60795Y54361D01*
X68441Y64303D02*
Y68713D01*
X62195Y58056D02*
X68441Y64303D01*
X62195Y50653D02*
Y58056D01*
X57087Y49213D02*
X60754D01*
X62195Y50653D01*
X63595Y53866D02*
X68441Y58713D01*
X63595Y46154D02*
Y53866D01*
X57087Y45276D02*
X62717D01*
X63595Y46154D01*
X57087Y43307D02*
X63035D01*
X68441Y48713D01*
X57087Y41339D02*
X65194D01*
X67820Y38713D01*
X68441D01*
D26*
Y88713D02*
D03*
X78441D02*
D03*
X68441Y78713D02*
D03*
X78441D02*
D03*
X68441Y68713D02*
D03*
X78441D02*
D03*
X68441Y58713D02*
D03*
X78441D02*
D03*
X68441Y48713D02*
D03*
X78441D02*
D03*
X68441Y38713D02*
D03*
D27*
X78441D02*
D03*
D28*
X78740Y0D02*
D03*
Y118110D02*
D03*
X0D02*
D03*
Y0D02*
D03*
D29*
X48094Y90654D02*
D03*
X18595Y34653D02*
D03*
M02*
