G04*
G04 #@! TF.GenerationSoftware,Altium Limited,Altium Designer,20.2.5 (213)*
G04*
G04 Layer_Physical_Order=1*
G04 Layer_Color=255*
%FSLAX25Y25*%
%MOIN*%
G70*
G04*
G04 #@! TF.SameCoordinates,30BD3B00-C382-4E22-9566-45DB6D5F9054*
G04*
G04*
G04 #@! TF.FilePolarity,Positive*
G04*
G01*
G75*
%ADD20R,0.03937X0.03543*%
%ADD21R,0.04921X0.01181*%
%ADD22R,0.11811X0.07874*%
%ADD23R,0.04528X0.02362*%
%ADD24C,0.01200*%
%ADD25C,0.00800*%
%ADD26C,0.05906*%
%ADD27R,0.05906X0.05906*%
%ADD28C,0.13780*%
%ADD29C,0.03000*%
G36*
X89285Y126331D02*
X89723Y126149D01*
X90118Y125886D01*
X90453Y125550D01*
X90716Y125156D01*
X90898Y124718D01*
X90990Y124253D01*
Y124016D01*
Y-5906D01*
Y-6143D01*
X90898Y-6608D01*
X90716Y-7046D01*
X90453Y-7440D01*
X90118Y-7776D01*
X89723Y-8039D01*
X89285Y-8221D01*
X88820Y-8313D01*
X-21891D01*
X-22356Y-8221D01*
X-22794Y-8039D01*
X-23188Y-7776D01*
X-23524Y-7440D01*
X-23787Y-7046D01*
X-23969Y-6608D01*
X-24061Y-6143D01*
Y-5906D01*
Y124016D01*
Y124253D01*
X-23969Y124718D01*
X-23787Y125156D01*
X-23524Y125550D01*
X-23188Y125886D01*
X-22794Y126149D01*
X-22356Y126331D01*
X-21891Y126423D01*
X88820D01*
X89285Y126331D01*
D02*
G37*
%LPC*%
G36*
X28509Y95431D02*
X23372D01*
Y90687D01*
X28509D01*
Y92032D01*
X30148D01*
Y91672D01*
X35876D01*
Y95234D01*
X30148D01*
Y94479D01*
X28509D01*
Y95431D01*
D02*
G37*
G36*
X48094Y92795D02*
X47275Y92632D01*
X46580Y92168D01*
X46116Y91473D01*
X46010Y90936D01*
X44734D01*
Y91494D01*
X39006D01*
Y87932D01*
X44734D01*
Y88489D01*
X46666D01*
X47135Y88582D01*
X47275Y88676D01*
X47275Y88675D01*
X48094Y88512D01*
X48914Y88675D01*
X49608Y89139D01*
X50073Y89834D01*
X50236Y90654D01*
X50073Y91473D01*
X49608Y92168D01*
X48914Y92632D01*
X48094Y92795D01*
D02*
G37*
G36*
X68441Y92296D02*
X67514Y92174D01*
X66649Y91816D01*
X65907Y91246D01*
X65338Y90504D01*
X64980Y89640D01*
X64858Y88713D01*
X64980Y87785D01*
X65215Y87217D01*
X61875Y83877D01*
X28961D01*
X28509Y83995D01*
Y88738D01*
X23372D01*
Y83995D01*
X24717D01*
Y83356D01*
X24811Y82888D01*
X25076Y82491D01*
X25779Y81788D01*
X26176Y81523D01*
X26644Y81430D01*
X62382D01*
X62850Y81523D01*
X63247Y81788D01*
X66945Y85487D01*
X67514Y85251D01*
X68441Y85129D01*
X69368Y85251D01*
X70233Y85609D01*
X70975Y86179D01*
X71544Y86921D01*
X71902Y87785D01*
X72024Y88713D01*
X71902Y89640D01*
X71544Y90504D01*
X70975Y91246D01*
X70233Y91816D01*
X69368Y92174D01*
X68441Y92296D01*
D02*
G37*
G36*
Y82296D02*
X67514Y82174D01*
X66649Y81816D01*
X65907Y81247D01*
X65338Y80504D01*
X64980Y79640D01*
X64858Y78713D01*
X64980Y77785D01*
X65338Y76921D01*
X65907Y76179D01*
X66649Y75609D01*
X67514Y75251D01*
X68441Y75129D01*
X69368Y75251D01*
X70233Y75609D01*
X70975Y76179D01*
X71544Y76921D01*
X71902Y77785D01*
X72024Y78713D01*
X71902Y79640D01*
X71544Y80504D01*
X70975Y81247D01*
X70233Y81816D01*
X69368Y82174D01*
X68441Y82296D01*
D02*
G37*
G36*
Y72296D02*
X67514Y72174D01*
X66649Y71816D01*
X65907Y71246D01*
X65338Y70504D01*
X64980Y69640D01*
X64858Y68713D01*
X64980Y67785D01*
X65338Y66921D01*
X65907Y66179D01*
X66649Y65609D01*
X67514Y65251D01*
X68441Y65129D01*
X69368Y65251D01*
X70233Y65609D01*
X70975Y66179D01*
X71544Y66921D01*
X71902Y67785D01*
X72024Y68713D01*
X71902Y69640D01*
X71544Y70504D01*
X70975Y71246D01*
X70233Y71816D01*
X69368Y72174D01*
X68441Y72296D01*
D02*
G37*
G36*
X78441Y82296D02*
X77513Y82174D01*
X76649Y81816D01*
X75907Y81247D01*
X75338Y80504D01*
X74980Y79640D01*
X74857Y78713D01*
X74980Y77785D01*
X75338Y76921D01*
X75907Y76179D01*
X76649Y75609D01*
X77513Y75251D01*
X78441Y75129D01*
X79368Y75251D01*
X80233Y75609D01*
X80975Y76179D01*
X81544Y76921D01*
X81840Y77634D01*
X82672D01*
X85075Y75231D01*
Y64174D01*
X84613Y63982D01*
X81582Y67013D01*
X81902Y67785D01*
X82024Y68713D01*
X81902Y69640D01*
X81544Y70504D01*
X80975Y71246D01*
X80233Y71816D01*
X79368Y72174D01*
X78441Y72296D01*
X77513Y72174D01*
X76649Y71816D01*
X75907Y71246D01*
X75338Y70504D01*
X74980Y69640D01*
X74857Y68713D01*
X74980Y67785D01*
X75338Y66921D01*
X75907Y66179D01*
X76649Y65609D01*
X77513Y65251D01*
X78441Y65129D01*
X79368Y65251D01*
X80141Y65571D01*
X83475Y62237D01*
Y59368D01*
X83013Y59177D01*
X82815Y59374D01*
X82485Y59596D01*
X82095Y59673D01*
X81889D01*
X81544Y60504D01*
X80975Y61247D01*
X80233Y61816D01*
X79368Y62174D01*
X78441Y62296D01*
X77513Y62174D01*
X76649Y61816D01*
X75907Y61247D01*
X75338Y60504D01*
X74980Y59640D01*
X74857Y58713D01*
X74980Y57785D01*
X75338Y56921D01*
X75907Y56179D01*
X76649Y55609D01*
X77513Y55251D01*
X78441Y55129D01*
X79368Y55251D01*
X80233Y55609D01*
X80975Y56179D01*
X81544Y56921D01*
X81575Y56995D01*
X82075Y56895D01*
Y50530D01*
X81575Y50430D01*
X81544Y50504D01*
X80975Y51247D01*
X80233Y51816D01*
X79368Y52174D01*
X78441Y52296D01*
X77513Y52174D01*
X76649Y51816D01*
X75907Y51247D01*
X75338Y50504D01*
X74993Y49673D01*
X74594D01*
X74204Y49595D01*
X73874Y49374D01*
X72425Y47926D01*
X71952Y48160D01*
X72024Y48713D01*
X71902Y49640D01*
X71544Y50504D01*
X70975Y51247D01*
X70233Y51816D01*
X69368Y52174D01*
X68441Y52296D01*
X67514Y52174D01*
X66649Y51816D01*
X65907Y51247D01*
X65338Y50504D01*
X64980Y49640D01*
X64858Y48713D01*
X64980Y47785D01*
X65338Y46921D01*
X65907Y46179D01*
X66649Y45609D01*
X67514Y45251D01*
X68441Y45129D01*
X69368Y45251D01*
X70233Y45609D01*
X70975Y46179D01*
X71075Y46309D01*
X71575Y46139D01*
Y41286D01*
X71075Y41116D01*
X70975Y41246D01*
X70233Y41816D01*
X69368Y42174D01*
X68441Y42296D01*
X67514Y42174D01*
X66649Y41816D01*
X65907Y41246D01*
X65338Y40504D01*
X64980Y39640D01*
X64858Y38713D01*
X64980Y37785D01*
X65338Y36921D01*
X65907Y36179D01*
X66649Y35609D01*
X67514Y35251D01*
X68441Y35129D01*
X69368Y35251D01*
X70233Y35609D01*
X70975Y36179D01*
X71075Y36309D01*
X71575Y36140D01*
Y35076D01*
X69172Y32673D01*
X20311D01*
X20170Y32998D01*
X20131Y33173D01*
X20573Y33834D01*
X20736Y34653D01*
X20573Y35473D01*
X20109Y36167D01*
X19414Y36632D01*
X18595Y36795D01*
X17775Y36632D01*
X17081Y36167D01*
X16835Y35800D01*
X13163D01*
Y36872D01*
X8026D01*
Y35724D01*
X7298D01*
X6663Y36359D01*
Y39372D01*
X1526D01*
Y36359D01*
X-2113Y32720D01*
X-5906D01*
X-6071Y32687D01*
X-8966D01*
Y30305D01*
Y26368D01*
Y22432D01*
X-2845D01*
Y22602D01*
X63563D01*
X63630Y22616D01*
X76576D01*
X76967Y22693D01*
X77297Y22915D01*
X86815Y32433D01*
X87037Y32763D01*
X87114Y33154D01*
Y75653D01*
X87037Y76044D01*
X86815Y76375D01*
X83815Y79374D01*
X83485Y79596D01*
X83095Y79673D01*
X81889D01*
X81544Y80504D01*
X80975Y81247D01*
X80233Y81816D01*
X79368Y82174D01*
X78441Y82296D01*
D02*
G37*
G36*
X68441Y62296D02*
X67514Y62174D01*
X66649Y61816D01*
X65907Y61247D01*
X65338Y60504D01*
X64980Y59640D01*
X64858Y58713D01*
X64980Y57785D01*
X65338Y56921D01*
X65907Y56179D01*
X66649Y55609D01*
X67514Y55251D01*
X68441Y55129D01*
X69368Y55251D01*
X70233Y55609D01*
X70975Y56179D01*
X71544Y56921D01*
X71902Y57785D01*
X72024Y58713D01*
X71902Y59640D01*
X71544Y60504D01*
X70975Y61247D01*
X70233Y61816D01*
X69368Y62174D01*
X68441Y62296D01*
D02*
G37*
G36*
X-8553Y43750D02*
X-21565D01*
Y34676D01*
X-8553D01*
Y43750D01*
D02*
G37*
G36*
Y18474D02*
X-21565D01*
Y9400D01*
X-8553D01*
Y18474D01*
D02*
G37*
%LPD*%
G36*
X83475Y43907D02*
Y33976D01*
X75554Y26055D01*
X13163D01*
Y28737D01*
X13660Y29234D01*
X70174D01*
X70565Y29312D01*
X70895Y29533D01*
X74715Y33353D01*
X74936Y33683D01*
X75014Y34074D01*
Y35160D01*
X81994D01*
Y42265D01*
X81680D01*
X81628Y42406D01*
X81597Y42765D01*
X81847Y42933D01*
X83013Y44099D01*
X83475Y43907D01*
D02*
G37*
D20*
X25941Y86366D02*
D03*
Y93059D02*
D03*
X4095Y30307D02*
D03*
Y37000D02*
D03*
X10594Y27807D02*
D03*
Y34500D02*
D03*
D21*
X-5906Y23622D02*
D03*
Y25591D02*
D03*
Y27559D02*
D03*
Y29528D02*
D03*
Y31496D02*
D03*
Y21654D02*
D03*
D22*
X-15059Y39213D02*
D03*
Y13937D02*
D03*
D23*
X33012Y93453D02*
D03*
Y85972D02*
D03*
X41870Y89713D02*
D03*
D24*
X25941Y83356D02*
Y86366D01*
X62382Y82653D02*
X68441Y88713D01*
X26644Y82653D02*
X62382D01*
X25941Y83356D02*
X26644Y82653D01*
X32815Y93256D02*
X33012Y93453D01*
X26138Y93256D02*
X32815D01*
X25941Y93059D02*
X26138Y93256D01*
X41870Y89713D02*
X46666D01*
X47607Y90654D01*
X48094D01*
X4095Y37000D02*
X4291D01*
X6791Y34500D01*
X10594D01*
X-5906Y31496D02*
X-1606D01*
X3898Y37000D01*
X4095D01*
X10594Y34500D02*
X10671Y34577D01*
X18518D01*
X18595Y34653D01*
D25*
X78441Y78713D02*
X78500Y78654D01*
X83095D01*
X86094Y33154D02*
Y75653D01*
X83095Y78654D02*
X86094Y75653D01*
X76576Y23635D02*
X86094Y33154D01*
X63576Y23635D02*
X76576D01*
X-5906Y23622D02*
X63563D01*
X63576Y23635D01*
X78441Y68713D02*
X84495Y62659D01*
Y33553D02*
Y62659D01*
X75976Y25035D02*
X84495Y33553D01*
X-5906Y25591D02*
X178D01*
X733Y25035D01*
X75976D01*
X78441Y58713D02*
X78500Y58653D01*
X82095D01*
X83095Y45622D02*
Y57653D01*
X82095Y58653D02*
X83095Y57653D01*
X75494Y43654D02*
X81126D01*
X83095Y45622D01*
X73994Y42153D02*
X75494Y43654D01*
X13238Y30253D02*
X70174D01*
X73994Y34074D01*
Y42153D01*
X10594Y27807D02*
X10791D01*
X13238Y30253D01*
X78382Y48654D02*
X78441Y48713D01*
X74594Y48654D02*
X78382D01*
X72594Y46654D02*
X74594Y48654D01*
X72594Y34653D02*
Y46654D01*
X69595Y31653D02*
X72594Y34653D01*
X9287Y31653D02*
X69595D01*
X4095Y30307D02*
X7940D01*
X9287Y31653D01*
X10441Y27654D02*
X10594Y27807D01*
X8095Y27654D02*
X10441D01*
X7095Y26654D02*
X8095Y27654D01*
X1094Y26654D02*
X7095D01*
X-5906Y27559D02*
X189D01*
X1094Y26654D01*
X-5906Y29528D02*
X3315D01*
X4095Y30307D01*
D26*
X68441Y88713D02*
D03*
X78441D02*
D03*
X68441Y78713D02*
D03*
X78441D02*
D03*
X68441Y68713D02*
D03*
X78441D02*
D03*
X68441Y58713D02*
D03*
X78441D02*
D03*
X68441Y48713D02*
D03*
X78441D02*
D03*
X68441Y38713D02*
D03*
D27*
X78441D02*
D03*
D28*
X78740Y0D02*
D03*
Y118110D02*
D03*
X0D02*
D03*
Y0D02*
D03*
D29*
X48094Y90654D02*
D03*
X18595Y34653D02*
D03*
M02*
